<svg width="600" height="354" viewBox="0 0 600 354" fill="none" xmlns="http://www.w3.org/2000/svg">
<path d="M0 25C0 38.8071 11.1929 50 25 50H580C591.046 50 600 41.0457 600 30V20C600 8.9543 591.046 0 580 0H25C11.1929 0 0 11.1929 0 25V25Z" fill="white"/>
<path d="M0 329C0 342.807 11.1929 354 25 354H580C591.046 354 600 345.046 600 334V324C600 312.954 591.046 304 580 304H25C11.1929 304 0 315.193 0 329V329Z" fill="white"/>
<path d="M0 177C0 190.807 11.1929 202 25 202H580C591.046 202 600 193.046 600 182V172C600 160.954 591.046 152 580 152H25C11.1929 152 0 163.193 0 177V177Z" fill="white"/>
</svg>
